<svg width="41" height="40" viewBox="0 0 41 40" fill="none" xmlns="http://www.w3.org/2000/svg">
<path opacity="0.5" d="M39.9713 20.1009C41.5108 45.5254 -7.98557 49.7196 1.12235 12.0578C5.46048 -1.70483 36.8274 -9.01419 39.9713 20.1009Z" fill="#159B73"/>
<path opacity="0.5" d="M36.4173 20.007C37.7698 43.2012 -2.89924 47.2156 4.45328 12.8199C7.97126 0.237206 33.7339 -6.54697 36.4173 20.007Z" fill="#159B73"/>
<path opacity="0.5" d="M19.446 5.29508C36.6258 4.59724 43.2661 37.6476 14.8848 34.2375C5.10785 30.6044 -1.16553 9.82746 19.446 5.29508Z" fill="#159B73"/>
<path d="M14.9784 13.6689H17.6475C17.9784 13.6689 18.2878 13.8632 18.4316 14.1653L22.5396 22.8704H22.5755L23.7626 14.41C23.8129 13.9855 24.1798 13.6689 24.6115 13.6689H25.7842C26.3093 13.6689 26.7122 14.1294 26.6403 14.6546L25.0288 26.1725C24.9712 26.597 24.6043 26.9135 24.1726 26.9135H21.6547C21.3237 26.9135 21.0144 26.7193 20.8777 26.4171L16.6403 17.4819H16.6043L15.3957 26.1653C15.3381 26.5898 14.9712 26.9135 14.5396 26.9135H13.3669C12.8417 26.9135 12.4388 26.4531 12.5108 25.9279L14.1223 14.41C14.1798 13.9855 14.5467 13.6689 14.9784 13.6689Z" fill="white"/>
<path d="M27.3813 26.9135C28.0091 26.9135 28.518 26.4046 28.518 25.7768C28.518 25.1491 28.0091 24.6401 27.3813 24.6401C26.7535 24.6401 26.2446 25.1491 26.2446 25.7768C26.2446 26.4046 26.7535 26.9135 27.3813 26.9135Z" fill="#D16228"/>
</svg>
