<svg height="116pt" preserveAspectRatio="xMidYMid meet" viewBox="0 0 116 116" width="116pt" xmlns="http://www.w3.org/2000/svg"><path d="m442 1086c-125-42-231-126-287-227-16-31-32-83-41-137-44-272 24-496 183-601 121-80 307-94 450-34 137 58 234 154 284 281 30 75 33 252 5 352-46 169-138 296-254 352-59 28-79 32-167 35-85 3-111 0-173-21zm124-403c20-43 48-103 62-133l26-55 16 121c10 67 20 127 24 133s23 11 42 11c30 0 34-3 34-27 0-54-43-338-53-351-6-8-27-12-56-10l-46 3-66 135-66 135-6-40c-4-22-12-78-18-125-13-94-21-110-54-110-45 0-47 16-20 200 14 94 28 176 31 181s30 9 60 9h55z" transform="matrix(.1 0 0 -.1 0 116)"/></svg>